<mxfile host="app.diagrams.net" modified="2023-09-13T04:12:54.473Z" agent="Mozilla/5.0 (Windows NT 10.0; Win64; x64) AppleWebKit/537.36 (KHTML, like Gecko) Chrome/116.0.0.0 Safari/537.36 Edg/116.0.1938.76" etag="UnP4YrQ5Ht5pj336dz_w" version="21.7.4" type="device">
  <diagram name="Page-1" id="kc4T-5uHJgrSJyIu6QYL">
    <mxGraphModel dx="869" dy="633" grid="1" gridSize="10" guides="1" tooltips="1" connect="1" arrows="1" fold="1" page="1" pageScale="1" pageWidth="850" pageHeight="1100" math="0" shadow="0">
      <root>
        <mxCell id="0" />
        <mxCell id="1" parent="0" />
        <mxCell id="w0_QQB_UCVsp2qe5ltxY-16" style="edgeStyle=orthogonalEdgeStyle;rounded=0;orthogonalLoop=1;jettySize=auto;html=1;exitX=0.75;exitY=1;exitDx=0;exitDy=0;entryX=0.5;entryY=0;entryDx=0;entryDy=0;" edge="1" parent="1" source="w0_QQB_UCVsp2qe5ltxY-2" target="w0_QQB_UCVsp2qe5ltxY-4">
          <mxGeometry relative="1" as="geometry">
            <mxPoint x="495" y="210" as="targetPoint" />
          </mxGeometry>
        </mxCell>
        <mxCell id="w0_QQB_UCVsp2qe5ltxY-2" value="Browser" style="rounded=1;whiteSpace=wrap;html=1;" vertex="1" parent="1">
          <mxGeometry x="330" y="50" width="220" height="100" as="geometry" />
        </mxCell>
        <mxCell id="w0_QQB_UCVsp2qe5ltxY-15" style="edgeStyle=orthogonalEdgeStyle;rounded=0;orthogonalLoop=1;jettySize=auto;html=1;entryX=0.25;entryY=1;entryDx=0;entryDy=0;" edge="1" parent="1" source="w0_QQB_UCVsp2qe5ltxY-3" target="w0_QQB_UCVsp2qe5ltxY-2">
          <mxGeometry relative="1" as="geometry" />
        </mxCell>
        <mxCell id="w0_QQB_UCVsp2qe5ltxY-3" value="index.html" style="ellipse;whiteSpace=wrap;html=1;aspect=fixed;" vertex="1" parent="1">
          <mxGeometry x="345" y="220" width="80" height="80" as="geometry" />
        </mxCell>
        <mxCell id="w0_QQB_UCVsp2qe5ltxY-18" style="edgeStyle=orthogonalEdgeStyle;rounded=0;orthogonalLoop=1;jettySize=auto;html=1;entryX=0.721;entryY=-0.017;entryDx=0;entryDy=0;entryPerimeter=0;" edge="1" parent="1" source="w0_QQB_UCVsp2qe5ltxY-4" target="w0_QQB_UCVsp2qe5ltxY-5">
          <mxGeometry relative="1" as="geometry" />
        </mxCell>
        <mxCell id="w0_QQB_UCVsp2qe5ltxY-4" value="urls.py" style="ellipse;whiteSpace=wrap;html=1;aspect=fixed;" vertex="1" parent="1">
          <mxGeometry x="450" y="220" width="80" height="80" as="geometry" />
        </mxCell>
        <mxCell id="w0_QQB_UCVsp2qe5ltxY-12" style="edgeStyle=orthogonalEdgeStyle;rounded=0;orthogonalLoop=1;jettySize=auto;html=1;exitX=0.25;exitY=1;exitDx=0;exitDy=0;entryX=0.25;entryY=0;entryDx=0;entryDy=0;" edge="1" parent="1" source="w0_QQB_UCVsp2qe5ltxY-5" target="w0_QQB_UCVsp2qe5ltxY-6">
          <mxGeometry relative="1" as="geometry" />
        </mxCell>
        <mxCell id="w0_QQB_UCVsp2qe5ltxY-14" style="edgeStyle=orthogonalEdgeStyle;rounded=0;orthogonalLoop=1;jettySize=auto;html=1;exitX=0.25;exitY=0;exitDx=0;exitDy=0;entryX=0.5;entryY=1;entryDx=0;entryDy=0;" edge="1" parent="1" source="w0_QQB_UCVsp2qe5ltxY-5" target="w0_QQB_UCVsp2qe5ltxY-3">
          <mxGeometry relative="1" as="geometry" />
        </mxCell>
        <mxCell id="w0_QQB_UCVsp2qe5ltxY-5" value="views.py" style="rounded=1;whiteSpace=wrap;html=1;" vertex="1" parent="1">
          <mxGeometry x="330" y="360" width="220" height="100" as="geometry" />
        </mxCell>
        <mxCell id="w0_QQB_UCVsp2qe5ltxY-9" style="edgeStyle=orthogonalEdgeStyle;rounded=0;orthogonalLoop=1;jettySize=auto;html=1;exitX=1;exitY=0.5;exitDx=0;exitDy=0;" edge="1" parent="1" source="w0_QQB_UCVsp2qe5ltxY-6">
          <mxGeometry relative="1" as="geometry">
            <mxPoint x="630" y="560" as="targetPoint" />
          </mxGeometry>
        </mxCell>
        <mxCell id="w0_QQB_UCVsp2qe5ltxY-13" style="edgeStyle=orthogonalEdgeStyle;rounded=0;orthogonalLoop=1;jettySize=auto;html=1;exitX=0.75;exitY=0;exitDx=0;exitDy=0;entryX=0.75;entryY=1;entryDx=0;entryDy=0;" edge="1" parent="1" source="w0_QQB_UCVsp2qe5ltxY-6" target="w0_QQB_UCVsp2qe5ltxY-5">
          <mxGeometry relative="1" as="geometry" />
        </mxCell>
        <mxCell id="w0_QQB_UCVsp2qe5ltxY-6" value="models.py" style="rounded=1;whiteSpace=wrap;html=1;" vertex="1" parent="1">
          <mxGeometry x="330" y="510" width="220" height="100" as="geometry" />
        </mxCell>
        <mxCell id="w0_QQB_UCVsp2qe5ltxY-10" style="edgeStyle=orthogonalEdgeStyle;rounded=0;orthogonalLoop=1;jettySize=auto;html=1;exitX=0;exitY=0.5;exitDx=0;exitDy=0;entryX=1.012;entryY=0.39;entryDx=0;entryDy=0;entryPerimeter=0;" edge="1" parent="1" source="w0_QQB_UCVsp2qe5ltxY-7" target="w0_QQB_UCVsp2qe5ltxY-6">
          <mxGeometry relative="1" as="geometry" />
        </mxCell>
        <mxCell id="w0_QQB_UCVsp2qe5ltxY-7" value="DATABASE" style="swimlane;" vertex="1" parent="1">
          <mxGeometry x="630" y="490" width="200" height="120" as="geometry" />
        </mxCell>
      </root>
    </mxGraphModel>
  </diagram>
</mxfile>
